<svg xmlns="http://www.w3.org/2000/svg" viewBox="0 0 475.037 475.037" width="512" height="512"><g fill="#FFF"><path d="M475.018 234.728c-.4-62.9-25.5-122.1-70.8-166.5-45.6-44.8-105.8-69-169.5-68.2-131 1.6-236.3 109.4-234.7 240.3.8 63.5 26.2 122.9 71.5 167.2 44.7 43.6 103.4 67.5 165.8 67.5h3c63.1-.4 122.3-25.5 166.6-70.6 44.7-45.5 68.9-105.8 68.1-169.7zm-78.8 159.1c-41.5 42.3-96.9 65.7-156.1 66.1-59.4.7-115.6-21.7-158.1-63.2-42.5-41.4-66.3-97.1-67-156.6-1.5-122.6 97.1-223.6 219.9-225.1h2.8c58.6 0 114 22.6 156 63.9 42.4 41.6 65.9 97 66.3 155.9.7 59.9-21.9 116.4-63.8 159z"/><path d="M342.518 70.028c-31.5-19.8-67.9-30.3-105.1-30.3s-73.5 10.5-105.1 30.3c-31.6 19.8-56.9 48.1-73.1 81.7-1.8 3.7-.2 8.2 3.5 10 3.7 1.8 8.2.2 10-3.5 30.4-62.9 95-103.6 164.7-103.6 69.7 0 134.4 40.7 164.7 103.6 1.3 2.6 4 4.2 6.8 4.2 1.1 0 2.2-.2 3.2-.7 3.7-1.8 5.3-6.3 3.5-10-16.3-33.6-41.5-61.8-73.1-81.7z"/><path d="M312.118 151.528l-77.6 77.6c-2.9 2.9-2.9 7.7 0 10.6 1.5 1.5 3.4 2.2 5.3 2.2 2 0 3.9-.7 5.3-2.2l77.6-77.6c2.9-2.9 2.9-7.7 0-10.6-2.9-2.9-7.7-2.9-10.6 0z"/><path d="M277.018 230.028c-4.1 0-7.5 3.4-7.5 7.5 0 17.3-14.1 31.4-32.2 32.1-17.6-.1-31.9-14.1-31.9-31.3v-.3c-.3-8.6 2.9-17.1 8.9-23.3 5.8-6 13.4-9.3 21.6-9.3 4.1 0 7.5-3.4 7.5-7.5s-3.4-7.5-7.5-7.5c-12.3 0-23.8 5-32.4 13.9-8.7 9.1-13.5 21.5-13.1 34.1.1 25.5 21.2 46.2 47.1 46.2h.2c26.2-1 46.8-21.7 46.8-47.1 0-4.1-3.4-7.5-7.5-7.5z"/></g></svg>